<svg width="80" height="80" viewBox="0 0 80 80" fill="none" xmlns="http://www.w3.org/2000/svg">
<path d="M40 0C32.0888 0 24.3552 2.34596 17.7772 6.74121C11.1992 11.1365 6.07234 17.3836 3.04484 24.6927C0.0173313 32.0017 -0.774802 40.0444 0.768607 47.8036C2.31202 55.5628 6.12164 62.6902 11.7157 68.2843C17.3098 73.8783 24.4372 77.688 32.1964 79.2314C39.9556 80.7748 47.9983 79.9827 55.3073 76.9552C62.6164 73.9277 68.8635 68.8008 73.2588 62.2228C77.654 55.6448 80 47.9112 80 40C80 29.3913 75.7857 19.2172 68.2843 11.7157C60.7828 4.21427 50.6087 0 40 0ZM20 41.1714L15.9714 37.1428L21.6857 31.4286L15.9714 25.7143L20 21.6857L25.7143 27.4L31.4286 21.6857L35.4572 25.7143L29.7429 31.4286L35.4572 37.1428L31.4286 41.1714L25.7143 35.4571L20 41.1714ZM40 65.7143C38.3047 65.7143 36.6475 65.2116 35.238 64.2697C33.8284 63.3279 32.7298 61.9892 32.081 60.423C31.4323 58.8568 31.2626 57.1333 31.5933 55.4706C31.924 53.8079 32.7404 52.2807 33.9391 51.0819C35.1378 49.8832 36.6651 49.0668 38.3278 48.7361C39.9905 48.4054 41.7139 48.5751 43.2802 49.2239C44.8464 49.8726 46.1851 50.9713 47.1269 52.3808C48.0687 53.7904 48.5714 55.4476 48.5714 57.1428C48.5714 59.4161 47.6684 61.5963 46.0609 63.2038C44.4535 64.8112 42.2733 65.7143 40 65.7143ZM64.0286 37.1428L60 41.1714L54.2857 35.4571L48.5714 41.1714L44.5429 37.1428L50.2571 31.4286L44.5429 25.7143L48.5714 21.6857L54.2857 27.4L60 21.6857L64.0286 25.7143L58.3143 31.4286L64.0286 37.1428Z" fill="white"/>
</svg>
