<svg width="81" height="81" viewBox="0 0 81 81" fill="none" xmlns="http://www.w3.org/2000/svg">
<path d="M40.45 0.888687C32.5388 0.888687 24.8052 3.23465 18.2272 7.6299C11.6493 12.0252 6.52235 18.2723 3.49485 25.5813C0.467344 32.8904 -0.32479 40.933 1.21862 48.6923C2.76203 56.4515 6.57166 63.5788 12.1658 69.1729C17.7599 74.767 24.8872 78.5767 32.6464 80.1201C40.4057 81.6635 48.4483 80.8714 55.7574 77.8438C63.0664 74.8163 69.3135 69.6894 73.7088 63.1115C78.1041 56.5335 80.45 48.7999 80.45 40.8887C80.45 30.28 76.2357 20.1059 68.7343 12.6044C61.2328 5.10296 51.0587 0.888687 40.45 0.888687ZM20.45 33.7458C20.45 32.3331 20.8689 30.9521 21.6538 29.7775C22.4387 28.6028 23.5542 27.6873 24.8594 27.1467C26.1646 26.6061 27.6008 26.4646 28.9864 26.7402C30.372 27.0158 31.6447 27.6961 32.6436 28.6951C33.6426 29.694 34.3229 30.9667 34.5985 32.3523C34.8741 33.7379 34.7326 35.1741 34.192 36.4793C33.6514 37.7845 32.7359 38.9 31.5612 39.6849C30.3866 40.4698 29.0056 40.8887 27.5929 40.8887C25.6985 40.8887 23.8817 40.1361 22.5421 38.7966C21.2026 37.457 20.45 35.6402 20.45 33.7458ZM57.5929 58.0315H23.3072V52.3172H57.5929V58.0315ZM53.3072 40.8887C51.8944 40.8887 50.5134 40.4698 49.3388 39.6849C48.1642 38.9 47.2486 37.7845 46.708 36.4793C46.1674 35.1741 46.0259 33.7379 46.3016 32.3523C46.5772 30.9667 47.2575 29.694 48.2564 28.6951C49.2553 27.6961 50.5281 27.0158 51.9137 26.7402C53.2992 26.4646 54.7354 26.6061 56.0406 27.1467C57.3458 27.6873 58.4614 28.6028 59.2462 29.7775C60.0311 30.9521 60.45 32.3331 60.45 33.7458C60.45 35.6402 59.6975 37.457 58.3579 38.7966C57.0184 40.1361 55.2016 40.8887 53.3072 40.8887Z" fill="white"/>
</svg>
