<svg width="38" height="33" viewBox="0 0 38 33" fill="none" xmlns="http://www.w3.org/2000/svg">
<path d="M37.0806 6.76269C36.491 5.43931 35.6409 4.24008 34.5778 3.23212C33.5139 2.22116 32.2595 1.41776 30.8829 0.865617C29.4555 0.290804 27.9244 -0.0034188 26.3787 2.99709e-05C24.2102 2.99709e-05 22.0944 0.575667 20.2558 1.66298C19.8159 1.92308 19.3981 2.20877 19.0022 2.52004C18.6063 2.20877 18.1884 1.92308 17.7486 1.66298C15.9099 0.575667 13.7942 2.99709e-05 11.6256 2.99709e-05C10.0641 2.99709e-05 8.55098 0.28998 7.12142 0.865617C5.74024 1.41993 4.49542 2.2173 3.42655 3.23212C2.36206 4.23894 1.51172 5.43846 0.923717 6.76269C0.312304 8.13996 0 9.6025 0 11.1077C0 12.5276 0.299108 14.0072 0.892926 15.5124C1.38997 16.7702 2.10256 18.075 3.01308 19.3926C4.45583 21.4777 6.43963 23.6523 8.90287 25.8568C12.9848 29.511 17.0272 32.0353 17.1987 32.1376L18.2412 32.7857C18.7031 33.0714 19.2969 33.0714 19.7587 32.7857L20.8012 32.1376C20.9728 32.031 25.0107 29.511 29.0971 25.8568C31.5603 23.6523 33.5441 21.4777 34.9869 19.3926C35.8974 18.075 36.6144 16.7702 37.107 15.5124C37.7008 14.0072 38 12.5276 38 11.1077C38.0044 9.6025 37.692 8.13996 37.0806 6.76269ZM19.0022 29.4129C19.0022 29.4129 3.34298 19.6868 3.34298 11.1077C3.34298 6.76269 7.05104 3.24065 11.6256 3.24065C14.8411 3.24065 17.6298 4.98035 19.0022 7.52168C20.3746 4.98035 23.1633 3.24065 26.3787 3.24065C30.9533 3.24065 34.6614 6.76269 34.6614 11.1077C34.6614 19.6868 19.0022 29.4129 19.0022 29.4129Z" fill="white"/>
</svg>
