<svg width="80" height="80" viewBox="0 0 80 80" fill="none" xmlns="http://www.w3.org/2000/svg">
<path d="M40 0C32.0888 0 24.3552 2.34596 17.7772 6.74121C11.1992 11.1365 6.07234 17.3836 3.04484 24.6927C0.0173313 32.0017 -0.774802 40.0444 0.768607 47.8036C2.31202 55.5628 6.12164 62.6902 11.7157 68.2843C17.3098 73.8783 24.4372 77.688 32.1964 79.2314C39.9556 80.7748 47.9983 79.9827 55.3073 76.9552C62.6164 73.9277 68.8635 68.8008 73.2588 62.2228C77.654 55.6448 80 47.9112 80 40C80 29.3913 75.7857 19.2172 68.2843 11.7157C60.7828 4.21427 50.6087 0 40 0ZM27.1429 25.7143C28.5556 25.7143 29.9366 26.1332 31.1112 26.9181C32.2859 27.7029 33.2014 28.8185 33.742 30.1237C34.2826 31.4289 34.4241 32.8651 34.1485 34.2506C33.8729 35.6362 33.1926 36.909 32.1936 37.9079C31.1947 38.9068 29.922 39.5871 28.5364 39.8627C27.1508 40.1384 25.7146 39.9969 24.4094 39.4563C23.1042 38.9156 21.9887 38.0001 21.2038 36.8255C20.4189 35.6509 20 34.2699 20 32.8571C19.9921 31.9072 20.1752 30.9654 20.5386 30.0877C20.9019 29.21 21.438 28.4143 22.115 27.748C22.7921 27.0816 23.5962 26.5582 24.4795 26.2088C25.3629 25.8594 26.3075 25.6913 27.2572 25.7143H27.1429ZM54.6857 62.6286C53.161 60.0965 51.0075 58.0018 48.4343 56.5476C45.8611 55.0934 42.9557 54.3292 40 54.3292C37.0443 54.3292 34.1389 55.0934 31.5657 56.5476C28.9925 58.0018 26.839 60.0965 25.3143 62.6286L20.4286 59.7714C22.4627 56.3997 25.3333 53.6107 28.7623 51.6747C32.1913 49.7387 36.0623 48.7214 40 48.7214C43.9378 48.7214 47.8087 49.7387 51.2377 51.6747C54.6667 53.6107 57.5373 56.3997 59.5714 59.7714L54.6857 62.6286ZM52.8571 40C50.9627 40 49.1459 39.2474 47.8064 37.9079C46.4668 36.5684 45.7143 34.7515 45.7143 32.8571C45.7143 30.9627 46.4668 29.1459 47.8064 27.8064C49.1459 26.4668 50.9627 25.7143 52.8571 25.7143C54.7515 25.7143 56.5684 26.4668 57.9079 27.8064C59.2475 29.1459 60 30.9627 60 32.8571C60 34.7515 59.2475 36.5684 57.9079 37.9079C56.5684 39.2474 54.7515 40 52.8571 40Z" fill="white"/>
</svg>
